<svg xmlns="http://www.w3.org/2000/svg" viewBox="0 0 512 512">
  <!-- Body -->
  <path d="M112 208c-26.5 0-48 21.5-48 48s21.5 48 48 48h16v80c0 17.7 14.3 32 32 32s32-14.3 32-32v-80h128v80c0 17.7 14.3 32 32 32s32-14.3 32-32v-80h16c26.5 0 48-21.5 48-48s-21.5-48-48-48H112z" fill="#000000"/>
  <!-- Head -->
  <path d="M128 176c0-26.5 21.5-48 48-48h32c26.5 0 48 21.5 48 48v32h-128v-32z" fill="#000000"/>
  <!-- Ears -->
  <path d="M112 144c-17.7 0-32 14.3-32 32s14.3 32 32 32 32-14.3 32-32-14.3-32-32-32z" fill="#000000"/>
  <path d="M272 144c17.7 0 32 14.3 32 32s-14.3 32-32 32-32-14.3-32-32 14.3-32 32-32z" fill="#000000"/>
  <!-- Wool texture (circles) -->
  <circle cx="144" cy="232" r="16" fill="#333333"/>
  <circle cx="192" cy="232" r="16" fill="#333333"/>
  <circle cx="240" cy="232" r="16" fill="#333333"/>
  <circle cx="288" cy="232" r="16" fill="#333333"/>
  <circle cx="336" cy="232" r="16" fill="#333333"/>
  <circle cx="168" cy="264" r="16" fill="#333333"/>
  <circle cx="216" cy="264" r="16" fill="#333333"/>
  <circle cx="264" cy="264" r="16" fill="#333333"/>
  <circle cx="312" cy="264" r="16" fill="#333333"/>
</svg>
